{"glyphs":{"0":{"ha":1158,"x_min":79,"x_max":1061,"o":"m 858 1000 q 937 983 900 1000 q 1001 938 974 967 q 1045 872 1029 910 q 1061 793 1061 835 l 1061 215 q 1045 135 1061 174 q 1001 67 1029 97 q 937 18 974 36 q 858 0 900 0 l 282 0 q 203 18 240 0 q 139 67 167 36 q 95 135 111 97 q 79 215 79 174 l 79 793 q 95 872 79 835 q 139 938 111 910 q 203 983 167 967 q 282 1000 240 1000 l 858 1000 m 849 226 l 849 599 l 406 226 l 849 226 m 292 782 l 292 410 l 735 782 l 292 782 z "},"1":{"ha":543,"x_min":1,"x_max":542,"o":"m 321 1000 l 542 1000 l 542 0 l 329 0 l 329 676 l 326 674 l 328 674 l 283 619 l 1 619 l 321 1000 z "},"2":{"ha":1153,"x_min":79,"x_max":1061,"o":"m 858 1000 q 937 984 900 1000 q 1001 941 974 968 q 1045 877 1029 914 q 1061 799 1061 840 l 1061 578 q 1045 499 1061 536 q 1001 435 1029 463 q 937 391 974 407 q 858 375 900 375 l 292 375 l 292 213 l 1061 213 l 1061 0 l 79 0 l 79 388 q 95 466 79 429 q 139 530 111 503 q 203 573 167 557 q 282 589 240 589 l 849 589 l 849 788 l 292 788 l 292 707 l 79 707 l 79 799 q 95 877 79 840 q 139 941 111 914 q 203 984 167 968 q 282 1000 240 1000 l 858 1000 z "},"3":{"ha":1147,"x_min":74,"x_max":1056,"o":"m 1018 599 q 1010 535 1018 564 q 1043 477 1031 510 q 1056 408 1056 444 l 1056 201 q 1040 124 1056 160 q 997 60 1024 88 q 933 16 969 32 q 854 0 896 0 l 276 0 q 198 16 235 0 q 133 60 161 32 q 90 124 106 88 q 74 201 74 160 l 74 279 l 286 279 l 286 213 l 843 213 l 843 397 l 238 397 l 238 610 l 806 610 l 806 788 l 286 788 l 286 710 l 74 710 l 74 799 q 90 877 74 840 q 133 941 106 914 q 198 984 161 968 q 276 1000 235 1000 l 817 1000 q 895 984 858 1000 q 959 941 932 968 q 1002 877 986 914 q 1018 799 1018 840 l 1018 599 z "},"4":{"ha":1014,"x_min":8,"x_max":953,"o":"m 953 463 l 953 249 l 819 249 l 819 0 l 607 0 l 607 249 l 8 249 l 8 439 l 629 1000 l 819 1000 l 819 463 l 953 463 m 354 463 l 607 463 l 607 668 l 354 463 z "},"5":{"ha":1153,"x_min":79,"x_max":1061,"o":"m 292 788 l 292 614 l 858 614 q 937 598 900 614 q 1001 555 974 582 q 1045 491 1029 528 q 1061 413 1061 454 l 1061 201 q 1045 124 1061 160 q 1001 60 1029 88 q 937 16 974 32 q 858 0 900 0 l 282 0 q 203 16 240 0 q 139 60 167 32 q 95 124 111 88 q 79 201 79 160 l 79 279 l 292 279 l 292 213 l 849 213 l 849 400 l 79 400 l 79 1000 l 1061 1000 l 1061 788 l 292 788 z "},"6":{"ha":1139,"x_min":79,"x_max":1061,"o":"m 292 788 l 292 614 l 858 614 q 937 598 900 614 q 1001 555 974 582 q 1045 491 1029 528 q 1061 413 1061 454 l 1061 201 q 1045 124 1061 160 q 1001 60 1029 88 q 937 16 974 32 q 858 0 900 0 l 282 0 q 203 16 240 0 q 139 60 167 32 q 95 124 111 88 q 79 201 79 160 l 79 799 q 95 877 79 840 q 139 941 111 914 q 203 984 167 968 q 282 1000 240 1000 l 910 1000 l 910 788 l 292 788 m 292 213 l 849 213 l 849 400 l 292 400 l 292 213 z "},"7":{"ha":917,"x_min":4,"x_max":835,"o":"m 633 1001 q 712 985 675 1001 q 776 942 749 969 q 819 878 803 915 q 835 800 835 842 l 835 0 l 622 0 l 622 789 l 4 789 l 4 1001 l 633 1001 z "},"8":{"ha":1158,"x_min":79,"x_max":1061,"o":"m 1061 603 q 1055 554 1061 579 q 1038 507 1049 529 q 1061 413 1061 464 l 1061 201 q 1045 124 1061 160 q 1001 60 1029 88 q 937 16 974 32 q 858 0 900 0 l 282 0 q 203 16 240 0 q 139 60 167 32 q 95 124 111 88 q 79 201 79 160 l 79 413 q 85 460 79 436 q 103 507 92 485 q 85 553 92 529 q 79 603 79 578 l 79 799 q 95 877 79 840 q 139 941 111 914 q 203 984 167 968 q 282 1000 240 1000 l 858 1000 q 930 988 896 1000 q 991 953 964 975 q 1036 900 1018 931 q 1061 835 1054 869 l 1061 603 m 292 213 l 849 213 l 849 400 l 292 400 l 292 213 m 292 600 l 849 600 l 849 786 l 292 786 l 292 600 z "},"9":{"ha":1150,"x_min":71,"x_max":1057,"o":"m 278 0 q 206 17 240 0 q 144 62 172 33 q 98 129 117 90 q 71 213 79 168 l 844 213 l 844 390 l 278 390 q 199 406 236 390 q 135 450 163 422 q 91 515 107 478 q 75 593 75 551 l 75 799 q 91 877 75 840 q 135 941 107 914 q 199 984 163 968 q 278 1000 236 1000 l 856 1000 q 934 984 897 1000 q 998 941 971 968 q 1041 877 1025 914 q 1057 799 1057 840 l 1057 201 q 1041 124 1057 160 q 998 60 1025 88 q 934 16 971 32 q 856 0 897 0 l 278 0 m 844 604 l 844 788 l 289 788 l 289 604 l 844 604 z "}," ":{"ha":447,"x_min":0,"x_max":0,"o":""}," ":{"ha":447,"x_min":0,"x_max":0,"o":""},"Æ":{"ha":1910,"x_min":75,"x_max":1782,"o":"m 1075 608 l 1643 608 l 1643 392 l 1075 392 l 1075 217 l 1782 217 l 1782 0 l 860 0 l 860 322 l 293 322 l 293 0 l 75 0 l 75 794 q 91 875 75 838 q 135 940 107 913 q 201 984 164 968 q 281 1000 239 1000 l 1782 1000 l 1782 783 l 1075 783 l 1075 608 m 860 783 l 293 783 l 293 539 l 860 539 l 860 783 z "},"Á":{"ha":1161,"x_min":81,"x_max":1081,"o":"m 874 1000 q 954 984 917 1000 q 1019 940 992 968 q 1064 875 1047 913 q 1081 794 1081 838 l 1081 0 l 863 0 l 863 322 l 296 322 l 296 0 l 81 0 l 81 794 q 97 875 81 838 q 140 940 113 913 q 206 984 168 968 q 286 1000 243 1000 l 874 1000 m 863 539 l 863 783 l 296 783 l 296 539 l 863 539 m 535 1350 l 753 1350 l 682 1068 l 464 1068 l 535 1350 z "},"Â":{"ha":1161,"x_min":81,"x_max":1081,"o":"m 874 1000 q 954 984 917 1000 q 1019 940 992 968 q 1064 875 1047 913 q 1081 794 1081 838 l 1081 0 l 863 0 l 863 322 l 296 322 l 296 0 l 81 0 l 81 794 q 97 875 81 838 q 140 940 113 913 q 206 984 168 968 q 286 1000 243 1000 l 874 1000 m 863 539 l 863 783 l 296 783 l 296 539 l 863 539 m 369 1068 l 522 1324 l 661 1324 l 814 1068 l 628 1068 l 589 1129 l 554 1068 l 369 1068 z "},"Ä":{"ha":1161,"x_min":81,"x_max":1081,"o":"m 874 1000 q 954 984 917 1000 q 1019 940 992 968 q 1064 875 1047 913 q 1081 794 1081 838 l 1081 0 l 863 0 l 863 322 l 296 322 l 296 0 l 81 0 l 81 794 q 97 875 81 838 q 140 940 113 913 q 206 984 168 968 q 286 1000 243 1000 l 874 1000 m 863 539 l 863 783 l 296 783 l 296 539 l 863 539 m 842 1069 l 628 1069 l 628 1283 l 842 1283 l 842 1069 m 544 1069 l 332 1069 l 332 1283 l 544 1283 l 544 1069 z "},"À":{"ha":1161,"x_min":81,"x_max":1081,"o":"m 874 1000 q 954 984 917 1000 q 1019 940 992 968 q 1064 875 1047 913 q 1081 794 1081 838 l 1081 0 l 863 0 l 863 322 l 296 322 l 296 0 l 81 0 l 81 794 q 97 875 81 838 q 140 940 113 913 q 206 984 168 968 q 286 1000 243 1000 l 874 1000 m 863 539 l 863 783 l 296 783 l 296 539 l 863 539 m 697 1069 l 479 1069 l 408 1351 l 626 1351 l 697 1069 z "},"Å":{"ha":1161,"x_min":81,"x_max":1081,"o":"m 874 1000 q 954 984 917 1000 q 1019 940 992 968 q 1064 875 1047 913 q 1081 794 1081 838 l 1081 0 l 863 0 l 863 322 l 296 322 l 296 0 l 81 0 l 81 794 q 97 875 81 838 q 140 940 113 913 q 206 984 168 968 q 286 1000 243 1000 l 874 1000 m 863 539 l 863 783 l 296 783 l 296 539 l 863 539 m 594 1350 q 669 1319 639 1350 q 700 1244 700 1288 l 700 1176 q 669 1102 700 1133 q 594 1071 639 1071 l 524 1071 q 448 1102 479 1071 q 417 1176 417 1133 l 417 1244 q 448 1319 417 1288 q 524 1350 479 1350 l 594 1350 m 524 1167 l 594 1167 l 594 1242 l 524 1242 l 524 1167 z "},"Ã":{"ha":1161,"x_min":81,"x_max":1081,"o":"m 874 1000 q 954 984 917 1000 q 1019 940 992 968 q 1064 875 1047 913 q 1081 794 1081 838 l 1081 0 l 863 0 l 863 322 l 296 322 l 296 0 l 81 0 l 81 794 q 97 875 81 838 q 140 940 113 913 q 206 984 168 968 q 286 1000 243 1000 l 874 1000 m 863 539 l 863 783 l 296 783 l 296 539 l 863 539 m 668 1235 q 723 1245 692 1235 q 801 1286 754 1256 l 801 1111 q 735 1086 769 1097 q 664 1075 700 1075 q 594 1088 626 1075 q 533 1118 563 1101 q 474 1148 503 1135 q 413 1161 444 1161 l 397 1161 q 378 1161 389 1161 q 354 1157 368 1161 q 322 1142 340 1153 q 281 1111 304 1132 l 281 1283 q 347 1308 313 1296 q 413 1321 381 1321 q 480 1309 449 1321 q 541 1283 511 1297 q 601 1253 571 1268 q 668 1235 632 1239 z "},"B":{"ha":1156,"x_min":82,"x_max":1082,"o":"m 1043 607 q 1033 543 1043 568 q 1068 483 1054 517 q 1082 413 1082 449 l 1082 206 q 1065 125 1082 163 q 1021 60 1049 88 q 956 16 993 32 q 875 0 918 0 l 82 0 l 82 1000 l 838 1000 q 917 984 879 1000 q 983 940 954 968 q 1027 875 1011 913 q 1043 794 1043 838 l 1043 607 m 297 217 l 864 217 l 864 400 l 297 400 l 297 217 m 297 617 l 825 617 l 825 783 l 297 783 l 297 617 z "},"C":{"ha":1142,"x_min":78,"x_max":1075,"o":"m 293 783 l 293 217 l 1075 217 l 1075 0 l 283 0 q 203 16 240 0 q 138 60 165 32 q 94 125 110 88 q 78 206 78 163 l 78 794 q 94 875 78 838 q 138 940 110 913 q 203 984 165 968 q 283 1000 240 1000 l 1075 1000 l 1075 783 l 293 783 z "},"":{"ha":1075,"x_min":0,"x_max":981,"o":"m 0 69 l 763 1000 l 981 1000 l 981 0 l 767 0 l 767 242 l 419 242 l 217 0 l 0 0 l 0 69 m 597 454 l 767 454 l 767 654 l 597 454 z "},"Ç":{"ha":1142,"x_min":78,"x_max":1075,"o":"m 293 783 l 293 217 l 1075 217 l 1075 0 l 738 0 l 672 -217 l 454 -217 l 519 0 l 283 0 q 203 16 240 0 q 138 60 165 32 q 94 125 110 88 q 78 206 78 163 l 78 794 q 94 875 78 838 q 138 940 110 913 q 203 984 165 968 q 283 1000 240 1000 l 1075 1000 l 1075 783 l 293 783 z "},"D":{"ha":1158,"x_min":81,"x_max":1081,"o":"m 874 1000 q 954 984 917 1000 q 1019 940 992 968 q 1064 875 1047 913 q 1081 794 1081 838 l 1081 206 q 1064 125 1081 163 q 1019 60 1047 88 q 954 16 992 32 q 874 0 917 0 l 81 0 l 81 1000 l 874 1000 m 296 217 l 863 217 l 863 783 l 296 783 l 296 217 z "},"E":{"ha":1064,"x_min":81,"x_max":1004,"o":"m 1004 783 l 299 783 l 299 608 l 867 608 l 867 392 l 299 392 l 299 217 l 1004 217 l 1004 0 l 81 0 l 81 1000 l 1004 1000 l 1004 783 z "},"É":{"ha":1064,"x_min":81,"x_max":1004,"o":"m 1004 783 l 299 783 l 299 608 l 867 608 l 867 392 l 299 392 l 299 217 l 1004 217 l 1004 0 l 81 0 l 81 1000 l 1004 1000 l 1004 783 m 500 1351 l 718 1351 l 647 1069 l 429 1069 l 500 1351 z "},"Ê":{"ha":1064,"x_min":81,"x_max":1004,"o":"m 1004 783 l 299 783 l 299 608 l 867 608 l 867 392 l 299 392 l 299 217 l 1004 217 l 1004 0 l 81 0 l 81 1000 l 1004 1000 l 1004 783 m 321 1068 l 474 1324 l 613 1324 l 765 1068 l 579 1068 l 540 1129 l 506 1068 l 321 1068 z "},"Ë":{"ha":1064,"x_min":81,"x_max":1004,"o":"m 1004 783 l 299 783 l 299 608 l 867 608 l 867 392 l 299 392 l 299 217 l 1004 217 l 1004 0 l 81 0 l 81 1000 l 1004 1000 l 1004 783 m 807 1069 l 593 1069 l 593 1283 l 807 1283 l 807 1069 m 510 1069 l 297 1069 l 297 1283 l 510 1283 l 510 1069 z "},"È":{"ha":1064,"x_min":81,"x_max":1004,"o":"m 1004 783 l 299 783 l 299 608 l 867 608 l 867 392 l 299 392 l 299 217 l 1004 217 l 1004 0 l 81 0 l 81 1000 l 1004 1000 l 1004 783 m 676 1069 l 458 1069 l 388 1351 l 606 1351 l 676 1069 z "},"€":{"ha":1110,"x_min":49,"x_max":1026,"o":"m 386 213 l 1026 213 l 1026 0 l 375 0 q 297 16 333 0 q 233 60 260 32 q 190 124 206 88 q 174 201 174 160 l 174 260 l 49 260 l 49 472 l 174 472 l 174 521 l 49 521 l 49 733 l 174 733 l 174 799 q 190 877 174 840 q 233 941 206 914 q 297 984 260 968 q 375 1000 333 1000 l 1026 1000 l 1026 788 l 386 788 l 386 733 l 890 733 l 890 521 l 386 521 l 386 472 l 890 472 l 890 260 l 386 260 l 386 213 z "},"F":{"ha":1004,"x_min":81,"x_max":1004,"o":"m 1004 1000 l 1004 783 l 299 783 l 299 608 l 867 608 l 867 392 l 299 392 l 299 0 l 81 0 l 81 1000 l 1004 1000 z "},"G":{"ha":1153,"x_min":78,"x_max":1078,"o":"m 1078 700 l 860 700 l 860 783 l 293 783 l 293 217 l 860 217 l 860 367 l 643 367 l 643 583 l 1078 583 l 1078 206 q 1061 125 1078 163 q 1017 60 1044 88 q 951 16 989 32 q 871 0 914 0 l 283 0 q 203 16 240 0 q 138 60 165 32 q 94 125 110 88 q 78 206 78 163 l 78 794 q 94 875 78 838 q 138 940 110 913 q 203 984 165 968 q 283 1000 240 1000 l 871 1000 q 951 984 914 1000 q 1017 940 989 968 q 1061 875 1044 913 q 1078 794 1078 838 l 1078 700 z "},"H":{"ha":1182,"x_min":79,"x_max":1100,"o":"m 1100 1000 l 1100 0 l 885 0 l 885 392 l 294 392 l 294 0 l 79 0 l 79 1000 l 294 1000 l 294 608 l 885 608 l 885 1000 l 1100 1000 z "},"I":{"ha":306,"x_min":79,"x_max":296,"o":"m 79 1000 l 296 1000 l 296 0 l 79 0 l 79 1000 z "},"Í":{"ha":306,"x_min":50,"x_max":339,"o":"m 60 1000 l 276 1000 l 276 0 l 60 0 l 60 1000 m 121 1351 l 339 1351 l 268 1069 l 50 1069 l 121 1351 z "},"Î":{"ha":306,"x_min":-15,"x_max":429,"o":"m 86 1000 l 303 1000 l 303 0 l 86 0 l 86 1000 m -15 1068 l 138 1324 l 276 1324 l 429 1068 l 243 1068 l 204 1129 l 169 1068 l -15 1068 z "},"Ï":{"ha":306,"x_min":-39,"x_max":471,"o":"m 103 1000 l 319 1000 l 319 0 l 103 0 l 103 1000 m 471 1069 l 257 1069 l 257 1283 l 471 1283 l 471 1069 m 174 1069 l -39 1069 l -39 1283 l 174 1283 l 174 1069 z "},"Ì":{"ha":306,"x_min":50,"x_max":349,"o":"m 132 1000 l 349 1000 l 349 0 l 132 0 l 132 1000 m 339 1069 l 121 1069 l 50 1351 l 268 1351 l 339 1069 z "},"J":{"ha":1083,"x_min":6,"x_max":1006,"o":"m 221 217 l 788 217 l 788 1000 l 1006 1000 l 1006 206 q 990 125 1006 163 q 945 60 974 88 q 879 16 917 32 q 800 0 842 0 l 211 0 q 131 16 168 0 q 65 60 93 32 q 22 125 38 88 q 6 206 6 163 l 6 335 l 221 335 l 221 217 z "},"K":{"ha":1107,"x_min":79,"x_max":1044,"o":"m 1044 1000 l 1044 925 l 688 500 q 866 287 775 394 q 1044 75 957 179 l 1044 0 l 819 0 l 492 392 l 296 392 l 296 0 l 79 0 l 79 1000 l 296 1000 l 296 608 l 492 608 q 554 682 524 644 q 617 757 585 719 l 819 1000 l 1044 1000 z "},"L":{"ha":1082,"x_min":79,"x_max":1079,"o":"m 79 1001 l 294 1001 l 294 217 l 1079 217 l 1079 0 l 79 0 l 79 1001 z "},"M":{"ha":1289,"x_min":78,"x_max":1200,"o":"m 976 1000 l 1200 1000 l 1200 0 l 983 0 l 983 671 q 810 465 899 571 q 639 260 722 358 l 293 669 l 293 0 l 78 0 l 78 1000 l 300 1000 l 639 596 l 976 1000 z "},"N":{"ha":1156,"x_min":78,"x_max":1078,"o":"m 860 1000 l 1078 1000 l 1078 0 l 856 0 l 293 669 l 293 0 l 78 0 l 78 1000 l 300 1000 l 860 333 l 860 1000 z "},"Ñ":{"ha":1156,"x_min":78,"x_max":1078,"o":"m 860 1000 l 1078 1000 l 1078 0 l 856 0 l 293 669 l 293 0 l 78 0 l 78 1000 l 300 1000 l 860 333 l 860 1000 m 693 1235 q 748 1245 717 1235 q 826 1286 779 1256 l 826 1111 q 760 1086 794 1097 q 689 1075 725 1075 q 619 1088 651 1075 q 558 1118 588 1101 q 499 1148 528 1135 q 438 1161 469 1161 l 422 1161 q 403 1161 414 1161 q 379 1157 393 1161 q 347 1142 365 1153 q 306 1111 329 1132 l 306 1283 q 372 1308 338 1296 q 438 1321 406 1321 q 505 1309 474 1321 q 566 1283 536 1297 q 626 1253 596 1268 q 693 1235 657 1239 z "},"O":{"ha":1150,"x_min":75,"x_max":1075,"o":"m 869 1000 q 949 984 911 1000 q 1015 940 986 968 q 1059 875 1043 913 q 1075 794 1075 838 l 1075 206 q 1059 125 1075 163 q 1015 60 1043 88 q 949 16 986 32 q 869 0 911 0 l 281 0 q 200 16 238 0 q 135 60 163 32 q 91 125 107 88 q 75 206 75 163 l 75 794 q 91 875 75 838 q 135 940 107 913 q 200 984 163 968 q 281 1000 238 1000 l 869 1000 m 290 217 l 857 217 l 857 783 l 290 783 l 290 217 z "},"Œ":{"ha":1908,"x_min":74,"x_max":1781,"o":"m 1074 608 l 1642 608 l 1642 392 l 1074 392 l 1074 217 l 1781 217 l 1781 0 l 279 0 q 200 16 238 0 q 134 60 163 32 q 90 125 106 88 q 74 206 74 163 l 74 794 q 90 875 74 838 q 134 940 106 913 q 200 984 163 968 q 279 1000 238 1000 l 1781 1000 l 1781 783 l 1074 783 l 1074 608 m 292 217 l 858 217 l 858 783 l 292 783 l 292 217 z "},"Ó":{"ha":1150,"x_min":75,"x_max":1075,"o":"m 869 1000 q 949 984 911 1000 q 1015 940 986 968 q 1059 875 1043 913 q 1075 794 1075 838 l 1075 206 q 1059 125 1075 163 q 1015 60 1043 88 q 949 16 986 32 q 869 0 911 0 l 281 0 q 200 16 238 0 q 135 60 163 32 q 91 125 107 88 q 75 206 75 163 l 75 794 q 91 875 75 838 q 135 940 107 913 q 200 984 163 968 q 281 1000 238 1000 l 869 1000 m 290 217 l 857 217 l 857 783 l 290 783 l 290 217 m 543 1351 l 761 1351 l 690 1069 l 472 1069 l 543 1351 z "},"Ô":{"ha":1150,"x_min":75,"x_max":1075,"o":"m 869 1000 q 949 984 911 1000 q 1015 940 986 968 q 1059 875 1043 913 q 1075 794 1075 838 l 1075 206 q 1059 125 1075 163 q 1015 60 1043 88 q 949 16 986 32 q 869 0 911 0 l 281 0 q 200 16 238 0 q 135 60 163 32 q 91 125 107 88 q 75 206 75 163 l 75 794 q 91 875 75 838 q 135 940 107 913 q 200 984 163 968 q 281 1000 238 1000 l 869 1000 m 290 217 l 857 217 l 857 783 l 290 783 l 290 217 m 364 1068 l 517 1324 l 656 1324 l 808 1068 l 622 1068 l 583 1129 l 549 1068 l 364 1068 z "},"Ö":{"ha":1150,"x_min":75,"x_max":1075,"o":"m 869 1000 q 949 984 911 1000 q 1015 940 986 968 q 1059 875 1043 913 q 1075 794 1075 838 l 1075 206 q 1059 125 1075 163 q 1015 60 1043 88 q 949 16 986 32 q 869 0 911 0 l 281 0 q 200 16 238 0 q 135 60 163 32 q 91 125 107 88 q 75 206 75 163 l 75 794 q 91 875 75 838 q 135 940 107 913 q 200 984 163 968 q 281 1000 238 1000 l 869 1000 m 290 217 l 857 217 l 857 783 l 290 783 l 290 217 m 836 1069 l 622 1069 l 622 1283 l 836 1283 l 836 1069 m 539 1069 l 326 1069 l 326 1283 l 539 1283 l 539 1069 z "},"Ò":{"ha":1150,"x_min":75,"x_max":1075,"o":"m 869 1000 q 949 984 911 1000 q 1015 940 986 968 q 1059 875 1043 913 q 1075 794 1075 838 l 1075 206 q 1059 125 1075 163 q 1015 60 1043 88 q 949 16 986 32 q 869 0 911 0 l 281 0 q 200 16 238 0 q 135 60 163 32 q 91 125 107 88 q 75 206 75 163 l 75 794 q 91 875 75 838 q 135 940 107 913 q 200 984 163 968 q 281 1000 238 1000 l 869 1000 m 290 217 l 857 217 l 857 783 l 290 783 l 290 217 m 706 1069 l 488 1069 l 417 1351 l 635 1351 l 706 1069 z "},"Õ":{"ha":1150,"x_min":75,"x_max":1075,"o":"m 869 1000 q 949 984 911 1000 q 1015 940 986 968 q 1059 875 1043 913 q 1075 794 1075 838 l 1075 206 q 1059 125 1075 163 q 1015 60 1043 88 q 949 16 986 32 q 869 0 911 0 l 281 0 q 200 16 238 0 q 135 60 163 32 q 91 125 107 88 q 75 206 75 163 l 75 794 q 91 875 75 838 q 135 940 107 913 q 200 984 163 968 q 281 1000 238 1000 l 869 1000 m 290 217 l 857 217 l 857 783 l 290 783 l 290 217 m 676 1235 q 731 1245 700 1235 q 810 1286 763 1256 l 810 1111 q 743 1086 778 1097 q 672 1075 708 1075 q 603 1088 635 1075 q 541 1118 571 1101 q 482 1148 511 1135 q 421 1161 453 1161 l 406 1161 q 387 1161 397 1161 q 363 1157 376 1161 q 331 1142 349 1153 q 289 1111 313 1132 l 289 1283 q 355 1308 321 1296 q 421 1321 389 1321 q 488 1309 457 1321 q 549 1283 519 1297 q 610 1253 579 1268 q 676 1235 640 1239 z "},"P":{"ha":1099,"x_min":78,"x_max":1078,"o":"m 871 999 q 951 983 914 999 q 1017 938 989 967 q 1061 872 1044 910 q 1078 793 1078 835 l 1078 535 q 1061 456 1078 493 q 1017 390 1044 418 q 951 345 989 361 q 871 329 914 329 l 293 328 q 297 319 297 328 l 296 319 q 293 321 293 319 l 293 0 l 78 0 l 78 999 l 871 999 m 293 546 l 860 546 l 860 783 l 293 783 l 293 546 z "},"Q":{"ha":1228,"x_min":75,"x_max":1189,"o":"m 1075 217 l 1189 217 l 1189 0 l 281 0 q 200 16 238 0 q 135 60 163 32 q 91 125 107 88 q 75 206 75 163 l 75 794 q 91 875 75 838 q 135 940 107 913 q 200 984 163 968 q 281 1000 238 1000 l 868 1000 q 949 984 911 1000 q 1014 940 986 968 q 1058 875 1042 913 q 1075 794 1075 838 l 1075 217 m 290 217 l 857 217 l 857 783 l 290 783 l 290 217 z "},"R":{"ha":1146,"x_min":76,"x_max":1076,"o":"m 1076 535 q 1060 456 1076 493 q 1015 390 1043 418 q 950 345 988 361 q 869 329 913 329 l 860 329 q 968 201 913 267 q 1076 74 1024 136 l 1076 0 l 854 0 l 578 329 l 292 328 q 296 319 296 328 l 294 319 q 292 321 292 319 l 292 0 l 76 0 l 76 999 l 869 999 q 950 983 913 999 q 1015 938 988 967 q 1060 872 1043 910 q 1076 793 1076 835 l 1076 535 m 292 546 l 858 546 l 858 783 l 292 783 l 292 546 z "},"S":{"ha":1142,"x_min":71,"x_max":1071,"o":"m 1071 701 l 853 701 l 853 783 l 286 783 l 286 608 l 865 608 q 944 592 907 608 q 1010 549 982 576 q 1055 483 1039 521 q 1071 403 1071 446 l 1071 206 q 1055 125 1071 163 q 1010 60 1039 88 q 944 16 982 32 q 865 0 907 0 l 276 0 q 196 16 233 0 q 131 60 158 32 q 87 125 103 88 q 71 206 71 163 l 71 299 l 286 299 l 286 217 l 853 217 l 853 392 l 276 392 q 196 408 233 392 q 131 451 158 424 q 87 517 103 479 q 71 597 71 554 l 71 794 q 87 875 71 838 q 131 940 103 913 q 196 984 158 968 q 276 1000 233 1000 l 865 1000 q 944 984 907 1000 q 1010 940 982 968 q 1055 875 1039 913 q 1071 794 1071 838 l 1071 701 z "},"Š":{"ha":1142,"x_min":71,"x_max":1071,"o":"m 1071 701 l 853 701 l 853 783 l 286 783 l 286 608 l 865 608 q 944 592 907 608 q 1010 549 982 576 q 1055 483 1039 521 q 1071 403 1071 446 l 1071 206 q 1055 125 1071 163 q 1010 60 1039 88 q 944 16 982 32 q 865 0 907 0 l 276 0 q 196 16 233 0 q 131 60 158 32 q 87 125 103 88 q 71 206 71 163 l 71 299 l 286 299 l 286 217 l 853 217 l 853 392 l 276 392 q 196 408 233 392 q 131 451 158 424 q 87 517 103 479 q 71 597 71 554 l 71 794 q 87 875 71 838 q 131 940 103 913 q 196 984 158 968 q 276 1000 233 1000 l 865 1000 q 944 984 907 1000 q 1010 940 982 968 q 1055 875 1039 913 q 1071 794 1071 838 l 1071 701 m 542 1324 l 579 1263 l 617 1324 l 804 1324 l 651 1068 l 513 1068 l 360 1324 l 542 1324 z "},"T":{"ha":1054,"x_min":28,"x_max":1028,"o":"m 1028 1000 l 1028 783 l 636 783 l 636 0 l 419 0 l 419 783 l 28 783 l 28 1000 l 1028 1000 z "},"U":{"ha":1150,"x_min":75,"x_max":1075,"o":"m 290 217 l 857 217 l 857 1000 l 1075 1000 l 1075 206 q 1059 125 1075 163 q 1015 60 1043 88 q 949 16 986 32 q 869 0 911 0 l 281 0 q 200 16 238 0 q 135 60 163 32 q 91 125 107 88 q 75 206 75 163 l 75 1000 l 290 1000 l 290 217 z "},"Ú":{"ha":1150,"x_min":75,"x_max":1075,"o":"m 290 217 l 857 217 l 857 1000 l 1075 1000 l 1075 206 q 1059 125 1075 163 q 1015 60 1043 88 q 949 16 986 32 q 869 0 911 0 l 281 0 q 200 16 238 0 q 135 60 163 32 q 91 125 107 88 q 75 206 75 163 l 75 1000 l 290 1000 l 290 217 m 515 1351 l 733 1351 l 663 1069 l 444 1069 l 515 1351 z "},"Û":{"ha":1150,"x_min":75,"x_max":1075,"o":"m 290 217 l 857 217 l 857 1000 l 1075 1000 l 1075 206 q 1059 125 1075 163 q 1015 60 1043 88 q 949 16 986 32 q 869 0 911 0 l 281 0 q 200 16 238 0 q 135 60 163 32 q 91 125 107 88 q 75 206 75 163 l 75 1000 l 290 1000 l 290 217 m 364 1068 l 517 1324 l 656 1324 l 808 1068 l 622 1068 l 583 1129 l 549 1068 l 364 1068 z "},"Ü":{"ha":1150,"x_min":75,"x_max":1075,"o":"m 290 217 l 857 217 l 857 1000 l 1075 1000 l 1075 206 q 1059 125 1075 163 q 1015 60 1043 88 q 949 16 986 32 q 869 0 911 0 l 281 0 q 200 16 238 0 q 135 60 163 32 q 91 125 107 88 q 75 206 75 163 l 75 1000 l 290 1000 l 290 217 m 836 1069 l 622 1069 l 622 1283 l 836 1283 l 836 1069 m 539 1069 l 326 1069 l 326 1283 l 539 1283 l 539 1069 z "},"Ù":{"ha":1150,"x_min":75,"x_max":1075,"o":"m 290 217 l 857 217 l 857 1000 l 1075 1000 l 1075 206 q 1059 125 1075 163 q 1015 60 1043 88 q 949 16 986 32 q 869 0 911 0 l 281 0 q 200 16 238 0 q 135 60 163 32 q 91 125 107 88 q 75 206 75 163 l 75 1000 l 290 1000 l 290 217 m 706 1069 l 488 1069 l 417 1351 l 635 1351 l 706 1069 z "},"V":{"ha":1393,"x_min":49,"x_max":1386,"o":"m 1138 1000 l 1386 1000 l 807 0 l 628 0 l 49 1000 l 299 1000 l 718 274 l 1138 1000 z "},"":{"ha":1075,"x_min":75,"x_max":1057,"o":"m 288 1000 l 288 325 l 840 1000 l 1057 1000 l 1057 911 l 293 0 l 75 0 l 75 1000 l 288 1000 z "},"W":{"ha":1638,"x_min":49,"x_max":1578,"o":"m 1578 1000 l 1214 0 l 1049 0 l 813 643 l 724 399 q 649 199 688 301 q 578 0 611 96 l 413 0 l 49 1000 l 278 1000 l 496 404 l 531 497 q 622 749 575 619 q 714 1000 669 878 l 913 1000 l 1132 404 l 1167 497 q 1258 749 1211 619 q 1350 1000 1306 878 l 1578 1000 z "},"X":{"ha":1128,"x_min":64,"x_max":1064,"o":"m 1064 1000 l 1064 926 l 706 500 l 1064 75 l 1064 0 l 840 0 l 563 328 q 499 252 533 293 q 428 168 464 211 q 356 82 392 125 q 288 0 319 39 l 64 0 l 64 74 l 421 500 q 243 714 333 606 q 64 926 153 822 l 64 1000 l 288 1000 l 565 671 q 628 747 593 706 q 699 831 663 789 q 772 917 735 874 q 840 1000 808 960 l 1064 1000 z "},"Y":{"ha":1119,"x_min":24,"x_max":1167,"o":"m 1167 1000 l 703 372 l 703 0 l 486 0 l 486 374 l 304 618 q 234 712 271 661 q 160 813 197 763 q 88 912 124 864 q 24 1000 53 960 l 281 1000 l 594 606 q 751 803 671 701 q 907 1000 832 904 l 1167 1000 z "},"Ý":{"ha":1119,"x_min":24,"x_max":1167,"o":"m 1167 1000 l 703 372 l 703 0 l 486 0 l 486 374 l 304 618 q 234 712 271 661 q 160 813 197 763 q 88 912 124 864 q 24 1000 53 960 l 281 1000 l 594 606 q 751 803 671 701 q 907 1000 832 904 l 1167 1000 m 528 1351 l 746 1351 l 675 1069 l 457 1069 l 528 1351 z "},"Ÿ":{"ha":1119,"x_min":24,"x_max":1167,"o":"m 1167 1000 l 703 372 l 703 0 l 486 0 l 486 374 l 304 618 q 234 712 271 661 q 160 813 197 763 q 88 912 124 864 q 24 1000 53 960 l 281 1000 l 594 606 q 751 803 671 701 q 907 1000 832 904 l 1167 1000 m 849 1069 l 635 1069 l 635 1283 l 849 1283 l 849 1069 m 551 1069 l 339 1069 l 339 1283 l 551 1283 l 551 1069 z "},"Z":{"ha":1140,"x_min":71,"x_max":1071,"o":"m 71 1000 l 1071 1000 l 1071 779 l 401 217 l 1071 217 l 1071 0 l 71 0 l 71 221 l 740 783 l 71 783 l 71 1000 z "},"Ž":{"ha":1140,"x_min":71,"x_max":1071,"o":"m 71 1000 l 1071 1000 l 1071 779 l 401 217 l 1071 217 l 1071 0 l 71 0 l 71 221 l 740 783 l 71 783 l 71 1000 m 540 1324 l 578 1263 l 615 1324 l 803 1324 l 650 1068 l 511 1068 l 358 1324 l 540 1324 z "},"a":{"ha":964,"x_min":72,"x_max":889,"o":"m 688 806 q 766 790 729 806 q 830 746 803 774 q 873 682 857 718 q 889 604 889 646 l 889 0 l 274 0 q 195 16 232 0 q 131 60 158 32 q 88 124 104 88 q 72 201 72 160 l 72 510 l 676 510 l 676 593 l 72 593 l 72 806 l 688 806 m 676 324 l 285 324 l 285 213 l 676 213 l 676 324 z "},"á":{"ha":1007,"x_min":72,"x_max":889,"o":"m 688 806 q 766 790 729 806 q 830 746 803 774 q 873 682 857 718 q 889 604 889 646 l 889 0 l 274 0 q 195 16 232 0 q 131 60 158 32 q 88 124 104 88 q 72 201 72 160 l 72 510 l 676 510 l 676 593 l 72 593 l 72 806 l 688 806 m 676 324 l 285 324 l 285 213 l 676 213 l 676 324 m 457 1169 l 675 1169 l 604 888 l 386 888 l 457 1169 z "},"â":{"ha":1007,"x_min":72,"x_max":889,"o":"m 688 806 q 766 790 729 806 q 830 746 803 774 q 873 682 857 718 q 889 604 889 646 l 889 0 l 274 0 q 195 16 232 0 q 131 60 158 32 q 88 124 104 88 q 72 201 72 160 l 72 510 l 676 510 l 676 593 l 72 593 l 72 806 l 688 806 m 676 324 l 285 324 l 285 213 l 676 213 l 676 324 m 292 888 l 444 1143 l 583 1143 l 736 888 l 550 888 l 511 949 l 476 888 l 292 888 z "},"´":{"ha":296,"x_min":46,"x_max":335,"o":"m 117 1319 l 335 1319 l 264 1038 l 46 1038 l 117 1319 z "},"ä":{"ha":1007,"x_min":72,"x_max":889,"o":"m 688 806 q 766 790 729 806 q 830 746 803 774 q 873 682 857 718 q 889 604 889 646 l 889 0 l 274 0 q 195 16 232 0 q 131 60 158 32 q 88 124 104 88 q 72 201 72 160 l 72 510 l 676 510 l 676 593 l 72 593 l 72 806 l 688 806 m 676 324 l 285 324 l 285 213 l 676 213 l 676 324 m 750 888 l 536 888 l 536 1101 l 750 1101 l 750 888 m 453 888 l 240 888 l 240 1101 l 453 1101 l 453 888 z "},"æ":{"ha":1636,"x_min":74,"x_max":1496,"o":"m 1296 806 q 1374 790 1338 806 q 1437 746 1410 774 q 1480 682 1464 718 q 1496 604 1496 646 l 1496 296 l 892 296 l 892 213 l 1496 213 l 1496 0 l 275 0 q 197 16 233 0 q 133 60 160 32 q 90 124 106 88 q 74 201 74 160 l 74 510 l 679 510 l 679 593 l 74 593 l 74 806 l 1296 806 m 679 324 l 286 324 l 286 213 l 679 213 l 679 324 m 1283 482 l 1283 593 l 892 593 l 892 482 l 1283 482 z "},"à":{"ha":1007,"x_min":72,"x_max":889,"o":"m 688 806 q 766 790 729 806 q 830 746 803 774 q 873 682 857 718 q 889 604 889 646 l 889 0 l 274 0 q 195 16 232 0 q 131 60 158 32 q 88 124 104 88 q 72 201 72 160 l 72 510 l 676 510 l 676 593 l 72 593 l 72 806 l 688 806 m 676 324 l 285 324 l 285 213 l 676 213 l 676 324 m 647 888 l 429 888 l 358 1169 l 576 1169 l 647 888 z "},"&":{"ha":1303,"x_min":74,"x_max":1214,"o":"m 1214 194 l 1214 -25 l 1019 86 q 947 24 992 47 q 853 0 903 0 l 275 0 q 197 16 233 0 q 133 60 160 32 q 90 124 106 88 q 74 201 74 160 l 74 458 q 88 520 74 486 q 133 575 101 554 q 125 611 126 593 q 124 649 124 629 l 124 797 q 140 876 124 839 q 183 940 156 913 q 247 983 211 967 q 325 999 283 999 l 815 999 q 886 986 853 999 q 947 951 919 974 q 992 899 974 929 q 1017 833 1010 868 l 1017 711 l 804 711 l 804 785 l 336 785 l 336 635 l 842 381 l 842 513 l 1054 513 l 1054 289 l 1214 194 m 600 285 q 444 364 525 322 q 286 443 363 406 l 286 213 l 744 213 q 672 249 708 232 q 600 285 636 265 z "},"å":{"ha":1007,"x_min":72,"x_max":889,"o":"m 688 806 q 766 790 729 806 q 830 746 803 774 q 873 682 857 718 q 889 604 889 646 l 889 0 l 274 0 q 195 16 232 0 q 131 60 158 32 q 88 124 104 88 q 72 201 72 160 l 72 510 l 676 510 l 676 593 l 72 593 l 72 806 l 688 806 m 676 324 l 285 324 l 285 213 l 676 213 l 676 324 m 461 1167 q 536 1135 506 1167 q 567 1061 567 1104 l 567 993 q 536 919 567 950 q 461 888 506 888 l 390 888 q 315 919 346 888 q 283 993 283 950 l 283 1061 q 315 1135 283 1104 q 390 1167 346 1167 l 461 1167 m 390 983 l 461 983 l 461 1058 l 390 1058 l 390 983 z "},"~":{"ha":561,"x_min":33,"x_max":554,"o":"m 421 451 q 476 461 444 451 q 554 501 507 471 l 554 326 q 488 302 522 313 q 417 292 453 292 q 347 305 379 292 q 285 334 315 318 q 223 363 254 350 q 157 376 192 376 q 111 368 140 376 q 33 322 82 360 l 33 506 q 99 528 65 519 q 165 538 133 538 q 233 526 201 538 q 294 501 264 515 q 355 472 324 486 q 421 451 386 457 z "},"*":{"ha":717,"x_min":35,"x_max":683,"o":"m 683 665 l 531 617 l 626 488 l 456 363 l 357 492 l 265 363 l 92 488 l 188 617 l 35 665 l 100 871 l 251 819 l 251 981 l 465 981 l 465 819 q 481 824 472 821 q 506 833 490 828 q 549 847 522 838 q 618 871 575 856 l 683 665 z "},"@":{"ha":1154,"x_min":79,"x_max":1061,"o":"m 614 721 q 742 676 697 721 q 788 547 788 631 l 788 460 l 849 460 l 849 788 l 292 788 l 292 213 l 1061 213 l 1061 0 l 282 0 q 203 16 240 0 q 139 60 167 32 q 95 124 111 88 q 79 201 79 160 l 79 799 q 95 877 79 840 q 139 941 111 914 q 203 984 167 968 q 282 1000 240 1000 l 858 1000 q 937 984 900 1000 q 1001 941 974 968 q 1045 877 1029 914 q 1061 799 1061 840 l 1061 300 l 528 300 q 399 344 444 300 q 353 474 353 389 l 353 547 q 399 676 353 631 q 528 721 444 721 l 614 721 m 640 460 l 640 574 l 500 574 l 500 460 l 640 460 z "},"ã":{"ha":1007,"x_min":72,"x_max":889,"o":"m 688 806 q 766 790 729 806 q 830 746 803 774 q 873 682 857 718 q 889 604 889 646 l 889 0 l 274 0 q 195 16 232 0 q 131 60 158 32 q 88 124 104 88 q 72 201 72 160 l 72 510 l 676 510 l 676 593 l 72 593 l 72 806 l 688 806 m 676 324 l 285 324 l 285 213 l 676 213 l 676 324 m 576 1051 q 631 1062 600 1051 q 710 1103 663 1072 l 710 928 q 643 903 678 914 q 572 892 608 892 q 503 905 535 892 q 441 935 471 918 q 382 965 411 951 q 321 978 353 978 l 306 978 q 287 978 297 978 q 263 974 276 978 q 231 959 249 969 q 189 928 213 949 l 189 1100 q 255 1125 221 1113 q 321 1138 289 1138 q 388 1126 357 1138 q 449 1099 419 1114 q 510 1070 479 1085 q 576 1051 540 1056 z "},"b":{"ha":926,"x_min":75,"x_max":892,"o":"m 690 806 q 769 790 732 806 q 833 746 806 774 q 876 682 860 718 q 892 604 892 646 l 892 201 q 876 124 892 160 q 833 60 860 88 q 769 16 806 32 q 690 0 732 0 l 75 0 l 75 1069 l 288 1069 l 288 806 l 690 806 m 288 213 l 679 213 l 679 593 l 288 593 l 288 213 z "},"\\":{"ha":722,"x_min":7,"x_max":724,"o":"m 83 1000 l 724 214 l 724 0 l 647 0 l 7 786 l 7 1000 l 83 1000 z "},"|":{"ha":297,"x_min":75,"x_max":288,"o":"m 75 1117 l 288 1117 l 288 -137 l 75 -137 l 75 1117 z "},"{":{"ha":401,"x_min":32,"x_max":381,"o":"m 300 213 l 381 213 l 381 0 l 290 0 q 211 16 249 0 q 147 60 174 32 q 103 124 119 88 q 88 201 88 160 l 88 389 l 65 403 l 67 403 q 49 412 60 406 q 32 421 39 418 l 32 603 l 88 633 l 88 799 q 103 877 88 840 q 147 941 119 914 q 211 984 174 968 q 290 1000 249 1000 l 381 1000 l 381 788 l 300 788 l 300 564 l 238 511 l 269 483 l 269 485 l 300 460 l 300 213 z "},"}":{"ha":401,"x_min":71,"x_max":419,"o":"m 71 213 l 151 213 l 151 458 l 214 511 l 151 564 l 151 788 l 71 788 l 71 1000 l 161 1000 q 240 984 203 1000 q 304 941 276 968 q 348 877 332 914 q 364 799 364 840 l 364 635 l 419 601 l 419 424 l 364 389 l 364 201 q 348 124 364 160 q 304 60 332 88 q 240 16 276 32 q 161 0 203 0 l 71 0 l 71 213 z "},"[":{"ha":382,"x_min":75,"x_max":368,"o":"m 75 1000 l 368 1000 l 368 788 l 288 788 l 288 213 l 368 213 l 368 0 l 75 0 l 75 1000 z "},"]":{"ha":383,"x_min":71,"x_max":364,"o":"m 71 1000 l 364 1000 l 364 0 l 71 0 l 71 213 l 150 213 l 150 788 l 71 788 l 71 1000 z "},"˘":{"ha":399,"x_min":56,"x_max":392,"o":"m 392 1222 l 392 1174 q 353 1078 392 1118 q 256 1038 315 1038 l 192 1038 q 94 1078 132 1038 q 56 1174 56 1118 l 56 1222 l 197 1222 l 197 1181 l 251 1181 l 251 1222 l 392 1222 z "},"•":{"ha":515,"x_min":150,"x_max":364,"o":"m 271 594 q 364 503 364 594 l 364 478 q 271 388 364 388 l 242 388 q 150 478 150 388 l 150 503 q 242 594 150 594 l 271 594 z "},"c":{"ha":965,"x_min":71,"x_max":888,"o":"m 283 593 l 283 213 l 888 213 l 888 0 l 272 0 q 194 16 231 0 q 131 60 158 32 q 87 124 103 88 q 71 201 71 160 l 71 604 q 87 682 71 646 q 131 746 103 718 q 194 790 158 774 q 272 806 231 806 l 886 806 l 886 593 l 283 593 z "},"ˇ":{"ha":413,"x_min":38,"x_max":482,"o":"m 219 1292 l 257 1231 l 294 1292 l 482 1292 l 329 1036 l 190 1036 l 38 1292 l 219 1292 z "},"ç":{"ha":963,"x_min":71,"x_max":888,"o":"m 888 213 l 888 0 l 569 0 q 542 -90 558 -47 q 515 -178 526 -133 l 381 -178 q 408 -87 392 -131 q 435 0 424 -44 l 272 0 q 194 16 231 0 q 131 60 158 32 q 87 124 103 88 q 71 201 71 160 l 71 604 q 87 682 71 646 q 131 746 103 718 q 194 790 158 774 q 272 806 231 806 l 886 806 l 886 593 l 283 593 l 283 213 l 888 213 z "},"¸":{"ha":296,"x_min":46,"x_max":335,"o":"m 117 78 l 335 78 l 264 -203 l 46 -203 l 117 78 z "},"¢":{"ha":883,"x_min":46,"x_max":863,"o":"m 618 604 l 618 213 l 863 213 l 863 0 l 618 0 l 618 -137 l 404 -137 l 404 0 l 249 0 q 170 16 207 0 q 106 60 133 32 q 62 124 78 88 q 46 201 46 160 l 46 617 q 62 695 46 658 q 106 760 78 732 q 170 803 133 788 q 249 819 207 819 l 404 819 l 404 979 l 618 979 l 618 819 l 863 819 l 863 604 l 618 604 m 404 604 l 258 604 l 258 213 l 404 213 l 404 604 z "},"ˆ":{"ha":417,"x_min":39,"x_max":483,"o":"m 39 1036 l 192 1292 l 331 1292 l 483 1036 l 297 1036 l 258 1097 l 224 1036 l 39 1036 z "},":":{"ha":343,"x_min":75,"x_max":288,"o":"m 288 213 l 288 0 l 75 0 l 75 213 l 288 213 m 288 592 l 75 592 l 75 806 l 288 806 l 288 592 z "},",":{"ha":338,"x_min":75,"x_max":288,"o":"m 288 197 l 288 22 q 272 -50 288 -15 q 227 -112 256 -85 q 160 -158 199 -139 q 75 -185 121 -176 l 75 197 l 288 197 z "},"d":{"ha":926,"x_min":32,"x_max":850,"o":"m 850 1069 l 850 0 l 233 0 q 155 16 192 0 q 91 60 118 32 q 48 124 64 88 q 32 201 32 160 l 32 604 q 48 682 32 646 q 91 746 64 718 q 155 790 118 774 q 233 806 192 806 l 638 806 l 638 1069 l 850 1069 m 246 213 l 638 213 l 638 593 l 246 593 l 246 213 z "},"°":{"ha":610,"x_min":63,"x_max":579,"o":"m 378 981 q 456 965 419 981 q 519 922 492 949 q 563 858 547 894 q 579 779 579 821 l 579 679 q 563 601 579 638 q 519 536 547 564 q 456 492 492 508 q 378 476 419 476 l 265 476 q 187 492 224 476 q 122 536 150 508 q 78 601 94 564 q 63 679 63 638 l 63 779 q 78 858 63 821 q 122 922 94 894 q 187 965 150 949 q 265 981 224 981 l 378 981 m 250 665 l 392 665 l 392 793 l 250 793 l 250 665 z "},"¨":{"ha":535,"x_min":75,"x_max":585,"o":"m 585 1038 l 371 1038 l 371 1251 l 585 1251 l 585 1038 m 288 1038 l 75 1038 l 75 1251 l 288 1251 l 288 1038 z "},"÷":{"ha":721,"x_min":10,"x_max":690,"o":"m 690 333 l 10 333 l 10 546 l 690 546 l 690 333 m 467 213 l 467 0 l 254 0 l 254 213 l 467 213 m 467 642 l 254 642 l 254 856 l 467 856 l 467 642 z "},"$":{"ha":1094,"x_min":47,"x_max":1028,"o":"m 1028 707 l 815 707 l 815 788 l 644 788 l 644 601 l 826 601 q 905 585 868 601 q 969 542 942 569 q 1012 477 996 514 q 1028 399 1028 440 l 1028 201 q 1012 124 1028 160 q 969 60 996 88 q 905 16 942 32 q 826 0 868 0 l 644 0 l 644 -136 l 431 -136 l 431 0 l 249 0 q 170 16 207 0 q 106 60 133 32 q 63 124 79 88 q 47 201 47 160 l 47 293 l 260 293 l 260 213 l 431 213 l 431 389 l 249 389 q 170 405 207 389 q 106 448 133 421 q 63 512 79 475 q 47 590 47 549 l 47 799 q 63 877 47 840 q 106 941 79 914 q 170 984 133 968 q 249 1000 207 1000 l 431 1000 l 431 1136 l 644 1136 l 644 1000 l 826 1000 q 905 984 868 1000 q 969 941 942 968 q 1012 877 996 914 q 1028 799 1028 840 l 1028 707 m 431 788 l 260 788 l 260 601 l 431 601 l 431 788 m 644 213 l 815 213 l 815 389 l 644 389 l 644 213 z "},"˙":{"ha":324,"x_min":63,"x_max":321,"o":"m 214 1293 q 290 1262 258 1293 q 321 1188 321 1231 l 321 1144 q 290 1070 321 1101 q 214 1039 258 1039 l 169 1039 q 94 1070 125 1039 q 63 1144 63 1101 l 63 1188 q 94 1262 63 1231 q 169 1293 125 1293 l 214 1293 z "},"ı":{"ha":297,"x_min":72,"x_max":285,"o":"m 72 806 l 285 806 l 285 0 l 72 0 l 72 806 z "},"e":{"ha":961,"x_min":71,"x_max":888,"o":"m 686 806 q 765 790 728 806 q 828 746 801 774 q 872 682 856 718 q 888 604 888 646 l 888 296 l 283 296 l 283 213 l 888 213 l 888 0 l 272 0 q 194 16 231 0 q 131 60 158 32 q 87 124 103 88 q 71 201 71 160 l 71 604 q 87 682 71 646 q 131 746 103 718 q 194 790 158 774 q 272 806 231 806 l 686 806 m 675 482 l 675 593 l 283 593 l 283 482 l 675 482 z "},"é":{"ha":886,"x_min":71,"x_max":888,"o":"m 686 806 q 765 790 728 806 q 828 746 801 774 q 872 682 856 718 q 888 604 888 646 l 888 296 l 283 296 l 283 213 l 888 213 l 888 0 l 272 0 q 194 16 231 0 q 131 60 158 32 q 87 124 103 88 q 71 201 71 160 l 71 604 q 87 682 71 646 q 131 746 103 718 q 194 790 158 774 q 272 806 231 806 l 686 806 m 675 482 l 675 593 l 283 593 l 283 482 l 675 482 m 439 1171 l 657 1171 l 586 889 l 368 889 l 439 1171 z "},"ê":{"ha":886,"x_min":71,"x_max":888,"o":"m 686 806 q 765 790 728 806 q 828 746 801 774 q 872 682 856 718 q 888 604 888 646 l 888 296 l 283 296 l 283 213 l 888 213 l 888 0 l 272 0 q 194 16 231 0 q 131 60 158 32 q 87 124 103 88 q 71 201 71 160 l 71 604 q 87 682 71 646 q 131 746 103 718 q 194 790 158 774 q 272 806 231 806 l 686 806 m 675 482 l 675 593 l 283 593 l 283 482 l 675 482 m 274 888 l 426 1143 l 565 1143 l 718 888 l 532 888 l 493 949 l 458 888 l 274 888 z "},"ë":{"ha":886,"x_min":71,"x_max":888,"o":"m 686 806 q 765 790 728 806 q 828 746 801 774 q 872 682 856 718 q 888 604 888 646 l 888 296 l 283 296 l 283 213 l 888 213 l 888 0 l 272 0 q 194 16 231 0 q 131 60 158 32 q 87 124 103 88 q 71 201 71 160 l 71 604 q 87 682 71 646 q 131 746 103 718 q 194 790 158 774 q 272 806 231 806 l 686 806 m 675 482 l 675 593 l 283 593 l 283 482 l 675 482 m 760 888 l 546 888 l 546 1101 l 760 1101 l 760 888 m 463 888 l 250 888 l 250 1101 l 463 1101 l 463 888 z "},"è":{"ha":886,"x_min":71,"x_max":888,"o":"m 686 806 q 765 790 728 806 q 828 746 801 774 q 872 682 856 718 q 888 604 888 646 l 888 296 l 283 296 l 283 213 l 888 213 l 888 0 l 272 0 q 194 16 231 0 q 131 60 158 32 q 87 124 103 88 q 71 201 71 160 l 71 604 q 87 682 71 646 q 131 746 103 718 q 194 790 158 774 q 272 806 231 806 l 686 806 m 675 482 l 675 593 l 283 593 l 283 482 l 675 482 m 629 888 l 411 888 l 340 1169 l 558 1169 l 629 888 z "},"…":{"ha":797,"x_min":75,"x_max":821,"o":"m 556 0 l 342 0 l 342 213 l 556 213 l 556 0 m 821 0 l 608 0 l 608 213 l 821 213 l 821 0 m 289 0 l 75 0 l 75 213 l 289 213 l 289 0 z "},"—":{"ha":1142,"x_min":75,"x_max":1050,"o":"m 1050 303 l 75 303 l 75 515 l 1050 515 l 1050 303 z "},"–":{"ha":983,"x_min":75,"x_max":906,"o":"m 906 303 l 75 303 l 75 515 l 906 515 l 906 303 z "},"=":{"ha":886,"x_min":82,"x_max":813,"o":"m 813 179 l 82 179 l 82 392 l 813 392 l 813 179 m 813 460 l 82 460 l 82 672 l 813 672 l 813 460 z "},"!":{"ha":306,"x_min":81,"x_max":293,"o":"m 81 0 l 81 213 l 293 213 l 293 0 l 81 0 m 81 1000 l 293 1000 l 293 279 l 81 279 l 81 1000 z "},"¡":{"ha":292,"x_min":74,"x_max":286,"o":"m 286 768 l 74 768 l 74 981 l 286 981 l 286 768 m 74 0 l 74 731 l 286 731 l 286 0 l 74 0 z "},"f":{"ha":611,"x_min":74,"x_max":585,"o":"m 286 856 l 286 806 l 585 806 l 585 593 l 286 593 l 286 0 l 74 0 l 74 868 q 90 946 74 910 q 133 1010 106 982 q 197 1053 160 1038 q 276 1069 235 1069 l 585 1069 l 585 856 l 286 856 z "},"":{"ha":1004,"x_min":13,"x_max":957,"o":"m 957 460 l 957 246 l 824 246 l 824 0 l 611 0 l 611 246 l 13 246 l 13 433 l 493 997 l 685 997 l 685 882 l 301 460 l 611 460 l 611 647 l 824 647 l 824 460 l 957 460 z "},"g":{"ha":949,"x_min":57,"x_max":875,"o":"m 875 -117 q 859 -195 875 -158 q 816 -259 843 -232 q 752 -302 789 -286 q 674 -318 715 -318 l 185 -318 l 185 -104 l 663 -104 l 663 0 l 260 0 q 181 16 218 0 q 117 60 144 32 q 73 124 89 88 q 57 201 57 160 l 57 604 q 73 682 57 646 q 117 746 89 718 q 181 790 144 774 q 260 806 218 806 l 674 806 q 752 790 715 806 q 816 746 789 774 q 859 682 843 718 q 875 604 875 646 l 875 -117 m 269 213 l 663 213 l 663 593 l 269 593 l 269 213 z "},"ß":{"ha":1157,"x_min":79,"x_max":1061,"o":"m 1061 599 q 1055 550 1061 575 q 1038 503 1049 525 q 1061 408 1061 460 l 1061 201 q 1045 124 1061 160 q 1001 60 1029 88 q 937 16 974 32 q 858 0 900 0 l 379 0 l 379 213 l 849 213 l 849 396 l 379 396 l 379 596 l 849 596 l 849 767 l 292 767 l 292 0 l 79 0 l 79 779 q 95 858 79 821 q 139 922 111 894 q 203 965 167 949 q 282 981 240 981 l 858 981 q 930 968 896 981 q 991 933 964 956 q 1036 881 1018 911 q 1061 815 1054 850 l 1061 599 z "},"`":{"ha":378,"x_min":44,"x_max":333,"o":"m 333 1038 l 115 1038 l 44 1319 l 263 1319 l 333 1038 z "},">":{"ha":660,"x_min":82,"x_max":676,"o":"m 82 221 l 406 408 l 228 508 q 153 552 192 528 q 82 594 115 576 l 82 840 l 676 497 l 676 318 l 82 -26 l 82 221 z "},"h":{"ha":928,"x_min":75,"x_max":892,"o":"m 690 806 q 768 790 732 806 q 832 746 804 774 q 876 682 860 718 q 892 604 892 646 l 892 0 l 679 0 l 679 593 l 288 593 l 288 0 l 75 0 l 75 1069 l 288 1069 l 288 806 l 690 806 z "},"-":{"ha":718,"x_min":82,"x_max":661,"o":"m 661 304 l 82 304 l 82 517 l 661 517 l 661 304 z "},"i":{"ha":318,"x_min":72,"x_max":285,"o":"m 72 806 l 285 806 l 285 0 l 72 0 l 72 806 m 285 1069 l 285 856 l 72 856 l 72 1069 l 285 1069 z "},"í":{"ha":297,"x_min":68,"x_max":357,"o":"m 72 806 l 285 806 l 285 0 l 72 0 l 72 806 m 139 1169 l 357 1169 l 286 888 l 68 888 l 139 1169 z "},"î":{"ha":297,"x_min":-19,"x_max":425,"o":"m 72 806 l 285 806 l 285 0 l 72 0 l 72 806 m -19 888 l 133 1143 l 272 1143 l 425 888 l 239 888 l 200 949 l 165 888 l -19 888 z "},"ï":{"ha":297,"x_min":-43,"x_max":467,"o":"m 76 806 l 289 806 l 289 0 l 76 0 l 76 806 m 467 890 l 253 890 l 253 1104 l 467 1104 l 467 890 m 169 890 l -43 890 l -43 1104 l 169 1104 l 169 890 z "},"ì":{"ha":297,"x_min":24,"x_max":313,"o":"m 78 806 l 290 806 l 290 0 l 78 0 l 78 806 m 313 889 l 94 889 l 24 1171 l 242 1171 l 313 889 z "},"j":{"ha":332,"x_min":-260,"x_max":293,"o":"m 293 1069 l 293 856 l 81 856 l 81 1069 l 293 1069 m 293 -87 q 277 -166 293 -129 q 233 -230 261 -203 q 169 -273 206 -257 q 90 -289 132 -289 l -260 -289 l -260 -75 l 81 -75 l 81 806 l 293 806 l 293 -87 z "},"k":{"ha":897,"x_min":75,"x_max":883,"o":"m 883 806 l 883 733 l 583 403 l 883 72 l 883 0 l 669 0 l 396 296 l 288 296 l 288 0 l 75 0 l 75 1069 l 288 1069 l 288 510 l 396 510 l 669 806 l 883 806 z "},"l":{"ha":468,"x_min":72,"x_max":449,"o":"m 286 1071 l 286 213 l 449 213 l 449 0 l 274 0 q 196 16 232 0 q 132 60 160 32 q 88 124 104 88 q 72 201 72 160 l 72 1071 l 286 1071 z "},"<":{"ha":657,"x_min":7,"x_max":600,"o":"m 600 222 l 600 -24 l 7 321 l 7 499 l 600 843 l 600 599 l 275 411 l 600 222 z "},"m":{"ha":1358,"x_min":75,"x_max":1246,"o":"m 1044 806 q 1123 790 1086 806 q 1187 746 1160 774 q 1230 682 1214 718 q 1246 604 1246 646 l 1246 0 l 1035 0 l 1035 593 l 768 593 l 768 0 l 554 0 l 554 593 l 288 593 l 288 0 l 75 0 l 75 806 l 1044 806 z "},"−":{"ha":718,"x_min":82,"x_max":661,"o":"m 661 304 l 82 304 l 82 517 l 661 517 l 661 304 z "},"×":{"ha":758,"x_min":74,"x_max":704,"o":"m 704 647 l 524 417 l 704 183 l 704 114 l 483 114 l 388 243 q 340 178 367 211 q 292 114 313 146 l 74 114 l 74 183 l 253 417 l 74 647 l 74 717 l 293 717 l 388 586 l 483 717 l 704 717 l 704 647 z "},"n":{"ha":967,"x_min":75,"x_max":892,"o":"m 690 806 q 769 790 732 806 q 833 746 806 774 q 876 682 860 718 q 892 604 892 646 l 892 0 l 679 0 l 679 593 l 288 593 l 288 0 l 75 0 l 75 806 l 690 806 z "},"":{"ha":1089,"x_min":17,"x_max":999,"o":"m 797 999 q 876 983 839 999 q 940 939 913 967 q 983 874 967 911 q 999 796 999 838 l 999 0 l 786 0 l 786 389 l 219 389 q 141 405 178 389 q 76 448 104 421 q 33 512 49 475 q 17 590 17 549 l 17 796 q 33 874 17 838 q 76 939 49 911 q 141 983 104 967 q 219 999 178 999 l 797 999 m 786 785 l 231 785 l 231 601 l 786 601 l 786 785 z "},"ñ":{"ha":983,"x_min":75,"x_max":892,"o":"m 690 806 q 769 790 732 806 q 833 746 806 774 q 876 682 860 718 q 892 604 892 646 l 892 0 l 679 0 l 679 593 l 288 593 l 288 0 l 75 0 l 75 806 l 690 806 m 579 1050 q 634 1060 603 1050 q 713 1101 665 1071 l 713 926 q 646 901 681 913 q 575 890 611 890 q 506 903 538 890 q 444 933 474 917 q 385 963 414 950 q 324 976 356 976 l 308 976 q 290 976 300 976 q 265 972 279 976 q 233 958 251 968 q 192 926 215 947 l 192 1099 q 258 1124 224 1111 q 324 1136 292 1136 q 391 1124 360 1136 q 452 1098 422 1113 q 513 1069 482 1083 q 579 1050 543 1054 z "},"#":{"ha":1107,"x_min":44,"x_max":1042,"o":"m 1042 579 l 882 579 l 835 432 l 1003 432 l 1003 219 l 765 219 q 734 110 750 169 q 703 0 718 50 l 488 0 l 554 219 l 360 219 q 329 110 344 169 q 299 0 314 50 l 83 0 l 149 219 l 44 219 l 44 432 l 213 432 l 260 579 l 83 579 l 83 792 l 328 792 q 362 897 344 840 q 394 1000 379 953 l 614 1000 l 543 792 l 735 792 l 801 1000 l 1019 1000 l 949 792 l 1042 792 l 1042 579 m 618 432 l 665 579 l 476 579 l 429 432 l 618 432 z "},"o":{"ha":961,"x_min":71,"x_max":888,"o":"m 686 806 q 765 790 728 806 q 828 746 801 774 q 872 682 856 718 q 888 604 888 646 l 888 201 q 872 124 888 160 q 828 60 856 88 q 765 16 801 32 q 686 0 728 0 l 272 0 q 194 16 231 0 q 131 60 158 32 q 87 124 103 88 q 71 201 71 160 l 71 604 q 87 682 71 646 q 131 746 103 718 q 194 790 158 774 q 272 806 231 806 l 686 806 m 283 213 l 675 213 l 675 593 l 283 593 l 283 213 z "},"ó":{"ha":961,"x_min":71,"x_max":888,"o":"m 686 806 q 765 790 728 806 q 828 746 801 774 q 872 682 856 718 q 888 604 888 646 l 888 201 q 872 124 888 160 q 828 60 856 88 q 765 16 801 32 q 686 0 728 0 l 272 0 q 194 16 231 0 q 131 60 158 32 q 87 124 103 88 q 71 201 71 160 l 71 604 q 87 682 71 646 q 131 746 103 718 q 194 790 158 774 q 272 806 231 806 l 686 806 m 283 213 l 675 213 l 675 593 l 283 593 l 283 213 m 435 1171 l 653 1171 l 582 889 l 364 889 l 435 1171 z "},"ô":{"ha":961,"x_min":71,"x_max":888,"o":"m 686 806 q 765 790 728 806 q 828 746 801 774 q 872 682 856 718 q 888 604 888 646 l 888 201 q 872 124 888 160 q 828 60 856 88 q 765 16 801 32 q 686 0 728 0 l 272 0 q 194 16 231 0 q 131 60 158 32 q 87 124 103 88 q 71 201 71 160 l 71 604 q 87 682 71 646 q 131 746 103 718 q 194 790 158 774 q 272 806 231 806 l 686 806 m 283 213 l 675 213 l 675 593 l 283 593 l 283 213 m 269 888 l 422 1143 l 561 1143 l 714 888 l 528 888 l 489 949 l 454 888 l 269 888 z "},"ö":{"ha":961,"x_min":71,"x_max":888,"o":"m 686 806 q 765 790 728 806 q 828 746 801 774 q 872 682 856 718 q 888 604 888 646 l 888 201 q 872 124 888 160 q 828 60 856 88 q 765 16 801 32 q 686 0 728 0 l 272 0 q 194 16 231 0 q 131 60 158 32 q 87 124 103 88 q 71 201 71 160 l 71 604 q 87 682 71 646 q 131 746 103 718 q 194 790 158 774 q 272 806 231 806 l 686 806 m 283 213 l 675 213 l 675 593 l 283 593 l 283 213 m 742 890 l 528 890 l 528 1104 l 742 1104 l 742 890 m 444 890 l 232 890 l 232 1104 l 444 1104 l 444 890 z "},"œ":{"ha":1635,"x_min":72,"x_max":1494,"o":"m 890 296 l 890 213 l 1494 213 l 1494 0 l 275 0 q 196 16 233 0 q 131 60 158 32 q 88 124 104 88 q 72 201 72 160 l 72 604 q 88 682 72 646 q 131 746 104 718 q 196 790 158 774 q 275 806 233 806 l 1294 806 q 1372 790 1336 806 q 1435 746 1408 774 q 1478 682 1463 718 q 1494 604 1494 646 l 1494 296 l 890 296 m 1282 482 l 1282 593 l 890 593 l 890 482 l 1282 482 m 285 213 l 678 213 l 678 593 l 285 593 l 285 213 z "},"ò":{"ha":961,"x_min":71,"x_max":888,"o":"m 686 806 q 765 790 728 806 q 828 746 801 774 q 872 682 856 718 q 888 604 888 646 l 888 201 q 872 124 888 160 q 828 60 856 88 q 765 16 801 32 q 686 0 728 0 l 272 0 q 194 16 231 0 q 131 60 158 32 q 87 124 103 88 q 71 201 71 160 l 71 604 q 87 682 71 646 q 131 746 103 718 q 194 790 158 774 q 272 806 231 806 l 686 806 m 283 213 l 675 213 l 675 593 l 283 593 l 283 213 m 625 889 l 407 889 l 336 1171 l 554 1171 l 625 889 z "},"õ":{"ha":961,"x_min":71,"x_max":888,"o":"m 686 806 q 765 790 728 806 q 828 746 801 774 q 872 682 856 718 q 888 604 888 646 l 888 201 q 872 124 888 160 q 828 60 856 88 q 765 16 801 32 q 686 0 728 0 l 272 0 q 194 16 231 0 q 131 60 158 32 q 87 124 103 88 q 71 201 71 160 l 71 604 q 87 682 71 646 q 131 746 103 718 q 194 790 158 774 q 272 806 231 806 l 686 806 m 283 213 l 675 213 l 675 593 l 283 593 l 283 213 m 582 1050 q 637 1060 606 1050 q 715 1101 668 1071 l 715 926 q 649 901 683 913 q 578 890 614 890 q 508 903 540 890 q 447 933 476 917 q 388 963 417 950 q 326 976 358 976 l 311 976 q 292 976 303 976 q 268 972 282 976 q 236 958 254 968 q 194 926 218 947 l 194 1099 q 260 1124 226 1111 q 326 1136 294 1136 q 394 1124 363 1136 q 455 1098 425 1113 q 515 1069 485 1083 q 582 1050 546 1054 z "},"p":{"ha":922,"x_min":75,"x_max":892,"o":"m 690 806 q 769 790 732 806 q 833 746 806 774 q 876 682 860 718 q 892 604 892 646 l 892 201 q 876 124 892 160 q 833 60 860 88 q 769 16 806 32 q 690 0 732 0 l 288 0 l 288 -319 l 75 -319 l 75 806 l 690 806 m 288 213 l 679 213 l 679 593 l 288 593 l 288 213 z "},"¶":{"ha":1157,"x_min":78,"x_max":1088,"o":"m 78 778 q 94 856 78 819 q 138 921 110 893 q 202 965 165 949 q 281 981 239 981 l 1088 981 l 1088 0 l 875 0 l 875 322 l 783 322 l 783 0 l 569 0 l 569 322 l 281 322 q 202 338 239 322 q 138 382 165 354 q 94 447 110 410 q 78 524 78 483 l 78 778 m 290 767 l 290 536 l 569 536 l 569 767 l 290 767 m 783 536 l 875 536 l 875 767 l 783 767 l 783 536 z "},"(":{"ha":408,"x_min":72,"x_max":365,"o":"m 285 788 l 285 213 l 365 213 l 365 0 l 274 0 q 195 16 232 0 q 131 60 158 32 q 88 124 104 88 q 72 201 72 160 l 72 799 q 88 877 72 840 q 131 941 104 914 q 195 984 158 968 q 274 1000 232 1000 l 365 1000 l 365 788 l 285 788 z "},")":{"ha":413,"x_min":78,"x_max":372,"o":"m 78 213 l 158 213 l 158 788 l 78 788 l 78 1000 l 171 1000 q 249 984 213 1000 q 313 941 285 968 q 356 877 340 914 q 372 799 372 840 l 372 201 q 356 124 372 160 q 313 60 340 88 q 249 16 285 32 q 171 0 213 0 l 78 0 l 78 213 z "},"%":{"ha":1342,"x_min":67,"x_max":1263,"o":"m 1168 999 l 1168 782 l 257 0 l 186 0 l 186 218 l 1097 999 l 1168 999 m 368 989 q 504 937 451 989 q 557 801 557 885 l 557 701 q 543 625 557 660 q 504 565 529 590 q 444 526 479 540 q 368 513 410 513 l 256 513 q 179 526 214 513 q 119 565 144 540 q 81 625 94 590 q 67 701 67 660 l 67 801 q 119 937 67 885 q 256 989 172 989 l 368 989 m 1074 489 q 1210 437 1157 489 q 1263 301 1263 385 l 1263 201 q 1249 125 1263 160 q 1210 65 1235 90 q 1150 26 1185 40 q 1074 13 1115 13 l 961 13 q 885 26 919 13 q 826 65 851 40 q 788 125 801 90 q 774 201 774 160 l 774 301 q 788 378 774 343 q 826 437 801 413 q 885 475 851 461 q 961 489 919 489 l 1074 489 m 947 186 l 1089 186 l 1089 315 l 947 315 l 947 186 m 240 688 l 382 688 l 382 815 l 240 815 l 240 688 z "},".":{"ha":324,"x_min":75,"x_max":288,"o":"m 288 0 l 75 0 l 75 213 l 288 213 l 288 0 z "},"+":{"ha":632,"x_min":24,"x_max":603,"o":"m 417 699 l 417 517 l 603 517 l 603 304 l 417 304 l 417 119 l 204 119 l 204 304 l 24 304 l 24 517 l 204 517 l 204 699 l 417 699 z "},"q":{"ha":922,"x_min":28,"x_max":846,"o":"m 28 604 q 44 682 28 646 q 87 746 60 718 q 151 790 114 774 q 229 806 188 806 l 846 806 l 846 -319 l 633 -319 l 633 0 l 229 0 q 151 16 188 0 q 87 60 114 32 q 44 124 60 88 q 28 201 28 160 l 28 604 m 242 213 l 633 213 l 633 593 l 242 593 l 242 213 z "},"?":{"ha":942,"x_min":43,"x_max":907,"o":"m 704 1000 q 783 984 746 1000 q 848 941 821 968 q 891 877 875 914 q 907 799 907 840 l 907 568 q 891 490 907 526 q 848 425 875 453 q 783 381 821 397 q 704 365 746 365 l 392 365 l 392 269 l 178 269 l 178 378 q 194 456 178 419 q 237 520 210 493 q 301 563 264 547 q 379 579 338 579 l 694 579 l 694 788 l 43 788 l 43 1000 l 704 1000 m 178 0 l 178 213 l 392 213 l 392 0 l 178 0 z "},"":{"ha":926,"x_min":38,"x_max":890,"o":"m 689 1000 q 767 984 731 1000 q 831 941 803 968 q 874 877 858 914 q 890 799 890 840 l 890 568 q 874 490 890 526 q 831 425 858 453 q 767 381 803 397 q 689 365 731 365 l 461 365 l 461 264 l 247 264 l 247 378 q 263 456 247 419 q 307 520 279 493 q 371 563 335 547 q 449 579 407 579 l 678 579 l 678 788 l 250 788 l 250 651 l 38 651 l 38 832 q 60 898 43 867 q 104 951 78 929 q 165 987 131 974 q 236 1000 199 1000 l 689 1000 m 247 0 l 247 213 l 461 213 l 461 0 l 247 0 z "},"¿":{"ha":938,"x_min":26,"x_max":892,"o":"m 229 0 q 151 16 188 0 q 86 60 114 32 q 42 124 58 88 q 26 201 26 160 l 26 433 q 42 512 26 475 q 86 576 58 549 q 151 619 114 603 q 229 635 188 635 l 543 635 l 543 739 l 756 739 l 756 624 q 740 545 756 582 q 696 481 724 508 q 631 437 668 453 q 553 421 594 421 l 239 421 l 239 213 l 892 213 l 892 0 l 229 0 m 756 768 l 543 768 l 543 981 l 756 981 l 756 768 z "},"\"":{"ha":550,"x_min":50,"x_max":513,"o":"m 261 701 l 50 701 l 50 981 l 261 981 l 261 701 m 513 701 l 301 701 l 301 981 l 513 981 l 513 701 z "},"“":{"ha":647,"x_min":63,"x_max":574,"o":"m 63 607 l 63 782 q 79 855 63 821 q 124 917 96 889 q 192 963 153 944 q 275 989 231 982 l 275 607 l 63 607 m 361 608 l 361 783 q 377 856 361 822 q 422 918 393 890 q 489 965 450 946 q 574 990 528 983 l 574 608 l 361 608 z "},"”":{"ha":647,"x_min":75,"x_max":586,"o":"m 586 981 l 586 807 q 569 735 586 769 q 524 673 553 700 q 457 627 496 646 q 372 600 418 608 l 372 981 l 586 981 m 288 981 l 288 807 q 272 735 288 769 q 227 673 256 700 q 160 627 199 646 q 75 600 121 608 l 75 981 l 288 981 z "},"‘":{"ha":333,"x_min":47,"x_max":260,"o":"m 47 607 l 47 782 q 63 855 47 821 q 108 917 79 889 q 175 963 136 944 q 260 989 214 982 l 260 607 l 47 607 z "},"’":{"ha":331,"x_min":75,"x_max":288,"o":"m 288 981 l 288 807 q 272 735 288 769 q 227 673 256 700 q 160 627 199 646 q 75 600 121 608 l 75 981 l 288 981 z "},"'":{"ha":349,"x_min":82,"x_max":294,"o":"m 294 700 l 82 700 l 82 981 l 294 981 l 294 700 z "},"r":{"ha":731,"x_min":72,"x_max":719,"o":"m 719 806 l 719 593 l 285 593 l 285 0 l 72 0 l 72 604 q 88 682 72 646 q 132 746 104 718 q 197 790 160 774 q 275 806 233 806 l 719 806 z "},"˚":{"ha":324,"x_min":13,"x_max":296,"o":"m 190 1318 q 265 1287 235 1318 q 296 1213 296 1256 l 296 1144 q 265 1070 296 1101 q 190 1039 235 1039 l 119 1039 q 44 1070 75 1039 q 13 1144 13 1101 l 13 1213 q 44 1287 13 1256 q 119 1318 75 1318 l 190 1318 m 119 1135 l 190 1135 l 190 1210 l 119 1210 l 119 1135 z "},"s":{"ha":953,"x_min":67,"x_max":885,"o":"m 885 564 l 671 564 l 671 593 l 279 593 l 279 510 l 682 510 q 761 494 724 510 q 826 450 799 478 q 869 386 853 422 q 885 308 885 350 l 885 201 q 869 124 885 160 q 826 60 853 88 q 761 16 799 32 q 682 0 724 0 l 268 0 q 190 16 226 0 q 126 60 154 32 q 83 124 99 88 q 67 201 67 160 l 67 242 l 279 242 l 279 213 l 671 213 l 671 296 l 268 296 q 190 312 226 296 q 126 356 154 328 q 83 419 99 383 q 67 497 67 456 l 67 604 q 83 682 67 646 q 126 746 99 718 q 190 790 154 774 q 268 806 226 806 l 682 806 q 761 790 724 806 q 826 746 799 774 q 869 682 853 718 q 885 604 885 646 l 885 564 z "},"š":{"ha":954,"x_min":67,"x_max":885,"o":"m 885 564 l 671 564 l 671 593 l 279 593 l 279 510 l 682 510 q 761 494 724 510 q 826 450 799 478 q 869 386 853 422 q 885 308 885 350 l 885 201 q 869 124 885 160 q 826 60 853 88 q 761 16 799 32 q 682 0 724 0 l 268 0 q 190 16 226 0 q 126 60 154 32 q 83 124 99 88 q 67 201 67 160 l 67 242 l 279 242 l 279 213 l 671 213 l 671 296 l 268 296 q 190 312 226 296 q 126 356 154 328 q 83 419 99 383 q 67 497 67 456 l 67 604 q 83 682 67 646 q 126 746 99 718 q 190 790 154 774 q 268 806 226 806 l 682 806 q 761 790 724 806 q 826 746 799 774 q 869 682 853 718 q 885 604 885 646 l 885 564 m 447 1143 l 485 1082 l 522 1143 l 710 1143 l 557 888 l 418 888 l 265 1143 l 447 1143 z "},";":{"ha":369,"x_min":71,"x_max":285,"o":"m 285 592 l 71 592 l 71 806 l 285 806 l 285 592 m 285 197 l 285 22 q 269 -50 285 -15 q 224 -112 253 -85 q 157 -158 196 -139 q 72 -185 118 -176 l 72 197 l 285 197 z "},"":{"ha":1071,"x_min":64,"x_max":1046,"o":"m 1046 1000 l 1046 931 l 281 0 l 64 0 l 64 71 l 650 788 l 64 788 l 64 1000 l 1046 1000 z "},"/":{"ha":724,"x_min":8,"x_max":725,"o":"m 649 1000 l 725 1000 l 725 786 l 85 0 l 8 0 l 8 215 l 649 1000 z "},"":{"ha":1075,"x_min":75,"x_max":1057,"o":"m 293 1000 l 1057 69 l 1057 0 l 839 0 l 635 242 l 288 242 l 288 0 l 75 0 l 75 1000 l 293 1000 m 288 454 l 457 454 l 288 654 l 288 454 z "},"£":{"ha":1019,"x_min":54,"x_max":944,"o":"m 731 721 l 731 788 l 392 788 l 392 597 l 811 597 l 811 385 l 392 385 l 392 213 l 944 213 l 944 0 l 54 0 l 54 213 l 179 213 l 179 385 l 54 385 l 54 597 l 179 597 l 179 799 q 195 877 179 840 q 239 941 211 914 q 303 984 267 968 q 381 1000 339 1000 l 743 1000 q 822 984 785 1000 q 885 941 858 968 q 928 877 913 914 q 944 799 944 840 l 944 721 l 731 721 z "},"t":{"ha":626,"x_min":74,"x_max":585,"o":"m 286 593 l 286 213 l 585 213 l 585 0 l 276 0 q 197 16 235 0 q 133 60 160 32 q 90 124 106 88 q 74 201 74 160 l 74 1044 l 286 1044 l 286 806 l 585 806 l 585 593 l 286 593 z "},"˜":{"ha":560,"x_min":32,"x_max":553,"o":"m 419 1203 q 474 1213 443 1203 q 553 1254 506 1224 l 553 1079 q 486 1054 521 1065 q 415 1043 451 1043 q 346 1056 378 1043 q 284 1086 314 1069 q 225 1116 254 1103 q 164 1129 196 1129 l 149 1129 q 130 1129 140 1129 q 106 1125 119 1129 q 74 1110 92 1121 q 32 1079 56 1100 l 32 1251 q 98 1276 64 1264 q 164 1289 132 1289 q 231 1277 200 1289 q 292 1251 263 1265 q 353 1222 322 1236 q 419 1203 383 1207 z "},"":{"ha":1132,"x_min":68,"x_max":1049,"o":"m 892 549 l 282 213 l 1049 213 l 1049 0 l 268 0 q 199 12 232 0 q 141 45 167 24 q 97 95 115 67 q 69 157 78 124 l 68 343 l 835 758 l 835 786 l 282 786 l 282 690 l 68 690 l 68 797 q 84 876 68 839 q 128 940 100 913 q 192 983 156 967 q 271 999 229 999 l 849 999 q 919 986 886 999 q 980 951 953 974 q 1024 899 1007 929 q 1049 833 1042 868 l 1049 629 l 892 549 z "},"u":{"ha":965,"x_min":74,"x_max":890,"o":"m 890 806 l 890 201 q 874 124 890 160 q 831 60 858 88 q 767 16 804 32 q 689 0 731 0 l 275 0 q 197 16 233 0 q 133 60 160 32 q 90 124 106 88 q 74 201 74 160 l 74 806 l 286 806 l 286 213 l 678 213 l 678 806 l 890 806 z "},"ú":{"ha":965,"x_min":74,"x_max":890,"o":"m 890 806 l 890 201 q 874 124 890 160 q 831 60 858 88 q 767 16 804 32 q 689 0 731 0 l 275 0 q 197 16 233 0 q 133 60 160 32 q 90 124 106 88 q 74 201 74 160 l 74 806 l 286 806 l 286 213 l 678 213 l 678 806 l 890 806 m 450 1171 l 668 1171 l 597 889 l 379 889 l 450 1171 z "},"û":{"ha":965,"x_min":74,"x_max":890,"o":"m 890 806 l 890 201 q 874 124 890 160 q 831 60 858 88 q 767 16 804 32 q 689 0 731 0 l 275 0 q 197 16 233 0 q 133 60 160 32 q 90 124 106 88 q 74 201 74 160 l 74 806 l 286 806 l 286 213 l 678 213 l 678 806 l 890 806 m 257 889 l 410 1144 l 549 1144 l 701 889 l 515 889 l 476 950 l 442 889 l 257 889 z "},"ü":{"ha":965,"x_min":74,"x_max":890,"o":"m 890 806 l 890 201 q 874 124 890 160 q 831 60 858 88 q 767 16 804 32 q 689 0 731 0 l 275 0 q 197 16 233 0 q 133 60 160 32 q 90 124 106 88 q 74 201 74 160 l 74 806 l 286 806 l 286 213 l 678 213 l 678 806 l 890 806 m 757 888 l 543 888 l 543 1101 l 757 1101 l 757 888 m 460 888 l 247 888 l 247 1101 l 460 1101 l 460 888 z "},"ù":{"ha":965,"x_min":74,"x_max":890,"o":"m 890 806 l 890 201 q 874 124 890 160 q 831 60 858 88 q 767 16 804 32 q 689 0 731 0 l 275 0 q 197 16 233 0 q 133 60 160 32 q 90 124 106 88 q 74 201 74 160 l 74 806 l 286 806 l 286 213 l 678 213 l 678 806 l 890 806 m 613 889 l 394 889 l 324 1171 l 542 1171 l 613 889 z "},"_":{"ha":1150,"x_min":75,"x_max":1057,"o":"m 1057 -215 l 75 -215 l 75 -3 l 1057 -3 l 1057 -215 z "},"":{"ha":0,"x_min":0,"x_max":0,"o":""},"v":{"ha":1097,"x_min":29,"x_max":1099,"o":"m 1099 806 l 654 0 l 472 0 l 29 806 l 274 806 l 564 271 l 854 806 l 1099 806 z "},"w":{"ha":1463,"x_min":49,"x_max":1415,"o":"m 1415 806 l 1113 0 l 951 0 l 733 481 l 525 0 l 365 0 l 49 806 l 274 806 l 447 388 l 507 526 q 569 667 536 594 q 629 806 601 739 l 835 806 l 1029 382 q 1111 595 1069 486 q 1190 806 1153 704 l 1415 806 z "},"x":{"ha":961,"x_min":64,"x_max":894,"o":"m 894 806 l 894 736 l 617 410 q 693 316 654 363 q 769 224 732 269 l 894 69 l 894 0 l 676 0 l 479 242 l 282 0 l 64 0 l 64 69 l 342 410 l 64 736 l 64 806 l 282 806 l 479 572 q 578 690 528 629 q 675 806 629 750 l 894 806 z "},"y":{"ha":951,"x_min":58,"x_max":876,"o":"m 876 -87 q 860 -166 876 -129 q 817 -230 844 -203 q 753 -273 790 -257 q 675 -289 717 -289 l 186 -289 l 186 -75 l 664 -75 l 664 0 l 261 0 q 183 16 219 0 q 118 60 146 32 q 74 124 90 88 q 58 201 58 160 l 58 803 l 271 803 l 271 213 l 664 213 l 664 803 l 876 803 l 876 -87 z "},"ý":{"ha":956,"x_min":58,"x_max":876,"o":"m 876 -87 q 860 -166 876 -129 q 817 -230 844 -203 q 753 -273 790 -257 q 675 -289 717 -289 l 186 -289 l 186 -75 l 664 -75 l 664 0 l 261 0 q 183 16 219 0 q 118 60 146 32 q 74 124 90 88 q 58 201 58 160 l 58 803 l 271 803 l 271 213 l 664 213 l 664 803 l 876 803 l 876 -87 m 446 1171 l 664 1171 l 593 889 l 375 889 l 446 1171 z "},"ÿ":{"ha":956,"x_min":58,"x_max":876,"o":"m 876 -87 q 860 -166 876 -129 q 817 -230 844 -203 q 753 -273 790 -257 q 675 -289 717 -289 l 186 -289 l 186 -75 l 664 -75 l 664 0 l 261 0 q 183 16 219 0 q 118 60 146 32 q 74 124 90 88 q 58 201 58 160 l 58 803 l 271 803 l 271 213 l 664 213 l 664 803 l 876 803 l 876 -87 m 753 890 l 539 890 l 539 1104 l 753 1104 l 753 890 m 456 890 l 243 890 l 243 1104 l 456 1104 l 456 890 z "},"z":{"ha":969,"x_min":75,"x_max":892,"o":"m 75 806 l 892 806 l 892 588 l 407 213 l 892 213 l 892 0 l 75 0 l 75 218 l 560 593 l 75 593 l 75 806 z "},"ž":{"ha":969,"x_min":75,"x_max":892,"o":"m 75 806 l 892 806 l 892 588 l 407 213 l 892 213 l 892 0 l 75 0 l 75 218 l 560 593 l 75 593 l 75 806 m 456 1161 l 493 1100 l 531 1161 l 718 1161 l 565 906 l 426 906 l 274 1161 l 456 1161 z "},"A":{"ha":1161,"x_min":81,"x_max":1081,"o":"m 874 1000 q 954 984 917 1000 q 1019 940 992 968 q 1064 875 1047 913 q 1081 794 1081 838 l 1081 0 l 863 0 l 863 322 l 296 322 l 296 0 l 81 0 l 81 794 q 97 875 81 838 q 140 940 113 913 q 206 984 168 968 q 286 1000 243 1000 l 874 1000 m 863 539 l 863 783 l 296 783 l 296 539 l 863 539 z "}}}
